<?xml version="1.0" standalone="no"?>
<!DOCTYPE svg PUBLIC "-//W3C//DTD SVG 20010904//EN"
 "http://www.w3.org/TR/2001/REC-SVG-20010904/DTD/svg10.dtd">
<svg version="1.0" xmlns="http://www.w3.org/2000/svg"
 width="153.000000pt" height="130.000000pt" viewBox="0 0 153.000000 130.000000"
 preserveAspectRatio="xMidYMid meet">

<g transform="translate(0.000000,130.000000) scale(0.100000,-0.100000)"
fill="#000000" stroke="none">
<path d="M225 1293 c-105 -23 -109 -34 -115 -343 -3 -140 -9 -261 -13 -267 -5
-7 -28 -13 -53 -13 -24 0 -44 -4 -44 -10 0 -5 12 -10 28 -10 15 0 38 -6 52
-13 l25 -13 5 -259 c5 -286 11 -311 67 -333 47 -18 103 -26 103 -13 0 6 -15
11 -32 11 -47 0 -80 20 -100 60 -16 31 -18 67 -18 283 0 234 -1 248 -20 264
-19 17 -19 17 0 35 19 18 20 33 20 266 0 215 2 251 18 282 20 40 53 60 100 60
17 0 32 5 32 10 0 10 -19 11 -55 3z"/>
<path d="M1250 1291 c0 -6 11 -11 25 -11 14 0 41 -7 61 -15 59 -24 64 -50 64
-329 0 -231 1 -246 20 -264 19 -18 19 -18 0 -35 -19 -16 -20 -30 -20 -264 0
-216 -2 -252 -18 -283 -20 -40 -53 -60 -99 -60 -18 0 -33 -5 -33 -11 0 -13 56
-5 103 13 57 22 62 47 65 330 3 251 4 258 25 273 12 8 37 15 57 16 34 1 34 1
-10 11 -25 5 -49 14 -55 19 -6 6 -12 117 -15 272 -6 287 -9 302 -68 326 -46
18 -102 24 -102 12z"/>
</g>
</svg>
